<?xml version="1.0"?>
<svg xmlns="http://www.w3.org/2000/svg" id="Capa_1" enable-background="new 0 0 512 512" height="512px" viewBox="0 0 512 512" width="512px"><g><g><g><path d="m330.55 0h-273.351c-8.703 0-15.783 7.08-15.783 15.783v93.336c0 4.142 3.357 7.5 7.5 7.5s7.5-3.358 7.5-7.5v-93.336c0-.432.352-.783.783-.783h33.917v432.3h-33.917c-.432 0-.783-.352-.783-.783v-307.533c0-4.142-3.357-7.5-7.5-7.5s-7.5 3.358-7.5 7.5v307.533c0 8.703 7.08 15.783 15.783 15.783h17.351v42.2c0 2.599 1.346 5.013 3.557 6.38 1.205.745 2.572 1.12 3.943 1.12 1.146 0 2.296-.263 3.354-.792l29.778-14.89 29.779 14.89c2.324 1.162 5.084 1.038 7.298-.328 2.211-1.367 3.557-3.781 3.557-6.38v-42.2h174.734c22.405 0 40.633-18.228 40.633-40.632v-381.036c0-22.404-18.228-40.632-40.633-40.632zm-224.434 15h18.134v432.3h-18.134zm34.7 477.365-22.279-11.14c-1.056-.528-2.205-.792-3.354-.792s-2.299.264-3.354.792l-22.278 11.14v-30.065h51.267v30.065zm215.367-70.697c0 14.134-11.499 25.632-25.633 25.632h-191.3v-432.3h191.3c14.134 0 25.633 11.499 25.633 25.632z" data-original="#000000" class="active-path" fill="#000000"/><path d="m272.85 82.833h-83.4c-8.547 0-15.5 6.953-15.5 15.5v50.267c0 8.547 6.953 15.5 15.5 15.5h83.399c8.547 0 15.5-6.953 15.5-15.5v-50.267c.001-8.547-6.952-15.5-15.499-15.5zm.5 65.767c0 .276-.225.5-.5.5h-83.4c-.275 0-.5-.224-.5-.5v-50.267c0-.276.225-.5.5-.5h83.399c.275 0 .5.224.5.5v50.267z" data-original="#000000" class="active-path" fill="#000000"/></g><path d="m463.084 262.5c4.143 0 7.5-3.358 7.5-7.5v-122.835c0-1.989-.79-3.897-2.196-5.303l-30.938-30.938v-13.459c0-4.142-3.357-7.5-7.5-7.5s-7.5 3.358-7.5 7.5v13.46l-30.937 30.937c-1.406 1.407-2.196 3.314-2.196 5.303v214.952c0 13.271 10.796 24.067 24.066 24.067h33.134c13.271 0 24.066-10.796 24.066-24.067v-61.117c0-4.142-3.357-7.5-7.5-7.5s-7.5 3.358-7.5 7.5v20.483h-18.133v-166.818h18.134v115.335c0 4.143 3.357 7.5 7.5 7.5zm-48.16-137.835 15.027-15.027 15.027 15.027zm40.66 222.452c0 5-4.067 9.067-9.066 9.067h-33.134c-4.999 0-9.066-4.067-9.066-9.067v-25.633h51.267v25.633zm-33.134-40.634h-18.133v-166.818h18.133z" data-original="#000000" class="active-path" fill="#000000"/></g></g> </svg>
