<?xml version="1.0"?>
<svg xmlns="http://www.w3.org/2000/svg" xmlns:xlink="http://www.w3.org/1999/xlink" version="1.1" id="Layer_1" x="0px" y="0px" viewBox="0 0 512 512" style="enable-background:new 0 0 512 512;" xml:space="preserve" width="512px" height="512px"><g><g>
	<g>
		<g>
			<path d="M378.146,278.521c-5.271-2.656-11.625-0.563-14.313,4.646c-0.083,0.156-8.188,15.5-22.5,15.5     c-14.313,0-22.417-15.344-22.458-15.438c-2.646-5.281-9.042-7.396-14.313-4.771c-5.271,2.635-7.396,9.042-4.771,14.313     c0.563,1.115,13.938,27.229,41.542,27.229c27.604,0,40.979-26.115,41.542-27.229C385.5,287.521,383.375,281.177,378.146,278.521z     " data-original="#000000" class="active-path" fill="#000000"/>
			<path d="M207.479,278.521c-5.271-2.656-11.625-0.563-14.313,4.646c-0.083,0.156-8.188,15.5-22.5,15.5     s-22.417-15.344-22.458-15.438c-2.646-5.281-9.021-7.396-14.313-4.771c-5.271,2.635-7.396,9.042-4.771,14.313     c0.563,1.115,13.938,27.229,41.542,27.229c27.604,0,40.979-26.115,41.542-27.229     C214.833,287.521,212.708,281.177,207.479,278.521z" data-original="#000000" class="active-path" fill="#000000"/>
			<circle cx="256" cy="405.333" r="21.333" data-original="#000000" class="active-path" fill="#000000"/>
			<path d="M480,42.667h4.083l-13.625,27.229c-1.646,3.302-1.479,7.229,0.458,10.375c1.958,3.146,5.396,5.063,9.083,5.063h21.333     c5.896,0,10.667-4.771,10.667-10.667C512,68.771,507.229,64,501.333,64h-4.083l13.625-27.229     c1.646-3.302,1.479-7.229-0.458-10.375c-1.958-3.146-5.396-5.063-9.083-5.063H480c-5.896,0-10.667,4.771-10.667,10.667     S474.104,42.667,480,42.667z" data-original="#000000" class="active-path" fill="#000000"/>
			<path d="M426.667,96h1.396l-10.271,15.417c-2.188,3.271-2.396,7.479-0.521,10.948c1.854,3.469,5.458,5.635,9.396,5.635H448     c5.896,0,10.667-4.771,10.667-10.667c0-5.896-4.771-10.667-10.667-10.667h-1.396l10.271-15.417     c2.188-3.271,2.396-7.479,0.521-10.948c-1.854-3.469-5.458-5.635-9.396-5.635h-21.333c-5.896,0-10.667,4.771-10.667,10.667     C416,91.229,420.771,96,426.667,96z" data-original="#000000" class="active-path" fill="#000000"/>
			<path d="M475.344,256.159C454.427,156.392,363.625,84.903,256,84.903c-11.043,0-21.85,0.935-32.482,2.393     c-14.061-16.607-13.454-41.507,2.19-57.167c11.958-11.991,32.792-11.991,44.75,0c9.042,9.061,9.042,23.805,0,32.866     c-4.167,4.171-4.167,10.928,0,15.099c4.167,4.171,10.917,4.171,15.083,0c17.375-17.382,17.375-45.681,0-63.064     c-20-20.041-54.917-20.041-74.917,0c-20.691,20.72-23.858,52.181-10.013,76.49c-82.233,19.756-146.753,82.582-163.956,164.638     C15.969,259.099,0,276.94,0,298.452s15.969,39.352,36.656,42.293C57.573,440.511,148.375,512,256,512     s198.427-71.489,219.344-171.256c20.688-2.94,36.656-20.781,36.656-42.293S496.031,259.099,475.344,256.159z M469.531,319.817     l-2.135-0.261c-5.594-0.626-10.542,3.389-11.448,8.884C440.375,422.431,356.281,490.645,256,490.645     S71.625,422.431,56.052,328.44c-0.854-5.172-7.031-8.675-12.375-8.675c-0.344,0-0.677,0.01-1.01,0.042     c-11.76,0-21.333-9.583-21.333-21.355s9.573-21.355,21.135-21.365l2.135,0.261c5.354,0.448,10.542-3.389,11.448-8.884     c13.478-81.344,78.314-143.288,160.51-158.509c14.102,11.598,31.109,17.815,48.354,17.815c15.585,0,31.115-5.078,44.556-14.787     c75.474,19.338,133.773,78.819,146.475,155.481c0.906,5.495,5.833,9.301,11.448,8.884l1.938-0.25     c11.76,0,21.333,9.583,21.333,21.355S481.094,319.806,469.531,319.817z" data-original="#000000" class="active-path" fill="#000000"/>
		</g>
	</g>
</g></g> </svg>
